<svg xmlns="http://www.w3.org/2000/svg" xmlns:xlink="http://www.w3.org/1999/xlink" xmlns:inkscape="http://www.inkscape.org/namespaces/inkscape" version="1.1" width="318" height="318.00004" viewBox="0 0 318 318.00004">
<defs>
<clipPath id="clip_1">
<path transform="matrix(1,0,0,-1,-138.6,590.29006)" d="M138.6 272.29H456.6V590.29006H138.6Z" clip-rule="evenodd"/>
</clipPath>
<clipPath id="clip_2">
<path transform="matrix(1,0,0,-1,-138.6,590.29006)" d="M0 841.89H595.28V0H0Z"/>
</clipPath>
<clipPath id="clip_3">
<path transform="matrix(1,0,0,-1,-138.6,590.29006)" d="M333.263 409.239H358.031V442.109H333.263Z"/>
</clipPath>
</defs>
<g>
<g clip-path="url(#clip_1)">
<g inkscape:groupmode="layer" inkscape:label="Layer 1">
<path transform="matrix(1,0,0,-1,-138.6,590.29006)" d="M0 0H595.28V841.89H0Z" fill="#1f190f"/>
<g clip-path="url(#clip_2)">
<path transform="matrix(1,0,0,-1,308.0405,158.96793)" d="M0 0C0-82.291-66.71-149-149-149-231.291-149-298-82.291-298 0-298 82.29-231.291 149-149 149-66.71 149 0 82.29 0 0" fill="#fbf7ec"/>
<path transform="matrix(1,0,0,-1,297.2221,158.96793)" stroke-width="2" stroke-linecap="butt" stroke-miterlimit="10" stroke-linejoin="miter" fill="none" stroke="#1f1a10" d="M0 0C0-76.316-61.866-138.182-138.182-138.182-214.498-138.182-276.364-76.316-276.364 0-276.364 76.315-214.498 138.182-138.182 138.182-61.866 138.182 0 76.315 0 0Z"/>
<path transform="matrix(1,0,0,-1,65.50139,171.51425)" d="M0 0V12.222C0 15.231-1.574 17.963-4.676 17.963-7.731 17.963-9.537 15.231-9.537 12.222V0H-15.185V22.87H-9.953L-9.537 20.093C-8.333 22.407-5.694 23.241-3.519 23.241-.787 23.241 1.944 22.129 3.24 18.981 5.277 22.222 7.916 23.148 10.879 23.148 17.361 23.148 20.555 19.167 20.555 12.315V0H14.907V12.315C14.907 15.324 13.657 17.871 10.602 17.871 7.546 17.871 5.648 15.231 5.648 12.222V0Z" fill="#1f190f"/>
<path transform="matrix(1,0,0,-1,96.19479,160.07874)" d="M0 0C0-4.352 3.009-6.944 6.759-6.944 15.647-6.944 15.647 6.898 6.759 6.898 3.009 6.898 0 4.352 0 0M13.703 11.389H19.119V-11.436H13.796L13.518-8.102C12.222-10.787 8.657-12.083 6.111-12.13-.648-12.176-5.648-8.009-5.648 0-5.648 7.87-.417 11.99 6.25 11.944 9.305 11.944 12.222 10.509 13.518 8.24Z" fill="#1f190f"/>
<path transform="matrix(1,0,0,-1,125.3139,148.69004)" d="M0 0 .417-2.639C2.176 .185 4.537 .602 6.852 .602 9.213 .602 11.481-.324 12.731-1.574L10.186-6.481C9.027-5.509 7.963-5 6.111-5 3.148-5 .417-6.574 .417-10.787V-22.824H-5.231V0Z" fill="#1f190f"/>
<path transform="matrix(1,0,0,-1,144.5727,160.07874)" d="M0 0C0-4.352 3.009-6.944 6.759-6.944 15.647-6.944 15.647 6.898 6.759 6.898 3.009 6.898 0 4.352 0 0M13.703 11.389H19.12V-11.436H13.796L13.518-8.102C12.222-10.787 8.657-12.083 6.11-12.13-.648-12.176-5.647-8.009-5.647 0-5.647 7.87-.417 11.99 6.249 11.944 9.306 11.944 12.222 10.509 13.518 8.24Z" fill="#1f190f"/>
<path transform="matrix(1,0,0,-1,185.26609,171.51425)" d="M0 0V11.945C0 15.417-1.898 18.056-5.51 18.056-8.981 18.056-11.343 15.139-11.343 11.667V0H-16.944V22.87H-11.898L-11.527 19.769C-9.213 22.037-6.898 23.194-4.028 23.194 1.342 23.194 5.647 19.167 5.647 11.991V0Z" fill="#1f190f"/>
<g opacity=".5">
<g clip-path="url(#clip_3)">
<path transform="matrix(1,0,0,-1,213.2739,160.12516)" d="M0 0C0 3.564-2.407 6.481-6.481 6.481-10.556 6.481-12.963 3.564-12.963 0-12.963-3.565-10.324-6.481-6.481-6.481-2.639-6.481 0-3.565 0 0M.509-20.925V-8.704C-1.111-11.204-4.676-11.945-7.083-11.945-14.398-11.945-18.611-6.667-18.611 0-18.611 6.713-13.935 11.944-6.898 11.944-4.306 11.944-1.25 10.833 .509 8.287L.88 11.435H6.157V-20.925Z" fill="#1f190f"/>
</g>
</g>
<path transform="matrix(1,0,0,-1,228.96729,160.12516)" d="M0 0C0-3.472 2.084-6.713 6.204-6.713 10.324-6.713 12.407-3.472 12.407 0 12.407 3.426 10 6.759 6.204 6.759 2.13 6.759 0 3.426 0 0M18.102 0C18.102-6.574 13.611-11.898 6.204-11.898-1.203-11.898-5.647-6.574-5.647 0-5.647 6.527-1.11 11.898 6.158 11.898 13.426 11.898 18.102 6.527 18.102 0" fill="#1f190f"/>
<path transform="matrix(1,0,0,-1,267.67039,148.69004)" d="M0 0V-2.686L-10.509-17.268H.093V-22.824H-19.119V-20.463L-8.193-5.139H-18.286V0Z" fill="#1f190f"/>
<path transform="matrix(1,0,0,-1,47.232896,196.72235)" d="M0 0H223.614" fill="#242a2a"/>
<path transform="matrix(1,0,0,-1,-138.6,590.29006)" d="M409.447 392.612H185.833V394.525H409.447Z" fill="#242a2a"/>
<path transform="matrix(1,0,0,-1,47.232896,121.21405)" d="M0 0H223.614" fill="#242a2a"/>
<path transform="matrix(1,0,0,-1,-138.6,590.29006)" d="M409.447 468.12H185.833V470.033H409.447Z" fill="#242a2a"/>
<path transform="matrix(1,0,0,-1,82.36279,217.84635)" d="M0 0H1.176V-1.036H1.204C1.231-.942 1.304-.826 1.421-.686 1.537-.546 1.687-.413 1.869-.287 2.051-.161 2.266-.054 2.513 .035 2.76 .124 3.033 .168 3.332 .168 3.826 .168 4.242 .065 4.578-.14 4.914-.345 5.189-.653 5.404-1.063 5.618-.653 5.922-.345 6.313-.14 6.706 .065 7.103 .168 7.504 .168 8.017 .168 8.438 .084 8.764-.084 9.091-.252 9.347-.474 9.534-.749 9.721-1.024 9.849-1.337 9.919-1.687 9.989-2.037 10.023-2.398 10.023-2.771V-6.636H8.764V-2.939C8.764-2.688 8.747-2.445 8.715-2.212 8.682-1.979 8.614-1.773 8.512-1.596 8.409-1.419 8.265-1.276 8.078-1.169 7.891-1.062 7.644-1.008 7.336-1.008 6.729-1.008 6.295-1.194 6.034-1.567 5.772-1.941 5.642-2.422 5.642-3.01V-6.636H4.382V-3.164C4.382-2.847 4.365-2.558 4.333-2.296 4.3-2.034 4.234-1.809 4.137-1.617 4.039-1.426 3.898-1.276 3.717-1.169 3.535-1.062 3.29-1.008 2.981-1.008 2.758-1.008 2.541-1.052 2.331-1.141 2.121-1.229 1.937-1.362 1.778-1.54 1.619-1.717 1.493-1.943 1.399-2.219 1.307-2.494 1.26-2.818 1.26-3.191V-6.636H0Z" fill="#1f190f"/>
<path transform="matrix(1,0,0,-1,103.4751,221.28964)" d="M0 0C-.299 0-.604-.017-.917-.05-1.229-.082-1.515-.146-1.771-.238-2.028-.332-2.238-.462-2.401-.631-2.564-.799-2.646-1.014-2.646-1.274-2.646-1.657-2.518-1.933-2.261-2.101-2.005-2.269-1.657-2.353-1.218-2.353-.873-2.353-.579-2.294-.336-2.178-.094-2.061 .103-1.909 .252-1.723 .401-1.536 .509-1.328 .574-1.1 .639-.871 .672-.645 .672-.42V0ZM-3.556 2.632C-3.201 2.958-2.791 3.203-2.324 3.366-1.857 3.53-1.391 3.611-.924 3.611-.438 3.611-.021 3.551 .329 3.43 .679 3.309 .966 3.145 1.189 2.939 1.414 2.734 1.579 2.499 1.687 2.232 1.794 1.967 1.848 1.688 1.848 1.399V-1.988C1.848-2.222 1.853-2.437 1.862-2.633 1.871-2.828 1.885-3.016 1.904-3.192H.784C.756-2.856 .742-2.521 .742-2.185H.714C.434-2.614 .103-2.917-.28-3.095-.663-3.271-1.106-3.36-1.61-3.36-1.918-3.36-2.212-3.318-2.492-3.234-2.772-3.15-3.018-3.024-3.228-2.856-3.438-2.688-3.603-2.48-3.725-2.233-3.846-1.986-3.906-1.699-3.906-1.372-3.906-.943-3.811-.584-3.619-.294-3.428-.005-3.167 .23-2.835 .413-2.504 .595-2.116 .726-1.673 .805-1.229 .884-.756 .924-.252 .924H.672V1.204C.672 1.372 .639 1.54 .574 1.708 .509 1.876 .41 2.027 .28 2.163 .149 2.298-.014 2.405-.21 2.484-.406 2.563-.64 2.604-.91 2.604-1.153 2.604-1.365 2.58-1.547 2.533-1.729 2.486-1.895 2.429-2.044 2.358-2.193 2.289-2.329 2.207-2.45 2.113-2.571 2.021-2.688 1.932-2.8 1.848Z" fill="#1f190f"/>
<path transform="matrix(1,0,0,-1,112.75629,217.84635)" d="M0 0H1.26V-1.021H1.288C1.372-.845 1.483-.684 1.624-.539 1.764-.395 1.92-.271 2.093-.168 2.266-.065 2.454 .017 2.66 .077 2.865 .138 3.07 .168 3.275 .168 3.481 .168 3.668 .141 3.836 .084L3.78-1.273C3.677-1.246 3.574-1.223 3.472-1.204 3.369-1.186 3.267-1.176 3.164-1.176 2.548-1.176 2.076-1.349 1.75-1.693 1.423-2.039 1.26-2.576 1.26-3.304V-6.636H0Z" fill="#1f190f"/>
<path transform="matrix(1,0,0,-1,127.120609,221.28964)" d="M0 0C-.299 0-.604-.017-.917-.05-1.229-.082-1.515-.146-1.771-.238-2.028-.332-2.238-.462-2.401-.631-2.564-.799-2.646-1.014-2.646-1.274-2.646-1.657-2.518-1.933-2.261-2.101-2.005-2.269-1.657-2.353-1.218-2.353-.873-2.353-.579-2.294-.336-2.178-.094-2.061 .103-1.909 .252-1.723 .401-1.536 .509-1.328 .574-1.1 .639-.871 .672-.645 .672-.42V0ZM-3.556 2.632C-3.201 2.958-2.791 3.203-2.324 3.366-1.857 3.53-1.391 3.611-.924 3.611-.438 3.611-.021 3.551 .329 3.43 .679 3.309 .966 3.145 1.189 2.939 1.414 2.734 1.579 2.499 1.687 2.232 1.794 1.967 1.848 1.688 1.848 1.399V-1.988C1.848-2.222 1.853-2.437 1.862-2.633 1.871-2.828 1.885-3.016 1.904-3.192H.784C.756-2.856 .742-2.521 .742-2.185H.714C.434-2.614 .103-2.917-.28-3.095-.663-3.271-1.106-3.36-1.61-3.36-1.918-3.36-2.212-3.318-2.492-3.234-2.772-3.15-3.018-3.024-3.228-2.856-3.438-2.688-3.603-2.48-3.725-2.233-3.846-1.986-3.906-1.699-3.906-1.372-3.906-.943-3.811-.584-3.619-.294-3.428-.005-3.167 .23-2.835 .413-2.504 .595-2.116 .726-1.673 .805-1.229 .884-.756 .924-.252 .924H.672V1.204C.672 1.372 .639 1.54 .574 1.708 .509 1.876 .41 2.027 .28 2.163 .149 2.298-.014 2.405-.21 2.484-.406 2.563-.64 2.604-.91 2.604-1.153 2.604-1.365 2.58-1.547 2.533-1.729 2.486-1.895 2.429-2.044 2.358-2.193 2.289-2.329 2.207-2.45 2.113-2.571 2.021-2.688 1.932-2.8 1.848Z" fill="#1f190f"/>
<path transform="matrix(1,0,0,-1,136.4028,217.84635)" d="M0 0H1.26V-1.021H1.288C1.446-.667 1.722-.38 2.114-.161 2.506 .059 2.958 .168 3.472 .168 3.789 .168 4.095 .119 4.389 .021 4.683-.077 4.939-.229 5.159-.434 5.378-.639 5.553-.902 5.684-1.225 5.814-1.547 5.88-1.927 5.88-2.366V-6.636H4.62V-2.716C4.62-2.408 4.578-2.145 4.494-1.925 4.41-1.705 4.298-1.528 4.158-1.393 4.018-1.258 3.856-1.159 3.675-1.099 3.493-1.038 3.304-1.008 3.107-1.008 2.847-1.008 2.604-1.05 2.38-1.134 2.156-1.218 1.96-1.351 1.792-1.533 1.624-1.715 1.493-1.945 1.399-2.226 1.307-2.506 1.26-2.837 1.26-3.22V-6.636H0Z" fill="#1f190f"/>
<path transform="matrix(1,0,0,-1,152.9927,218.85413)" d="M0 0C-.336 0-.64-.059-.91-.175-1.181-.292-1.409-.45-1.597-.651-1.783-.852-1.928-1.095-2.03-1.379-2.133-1.664-2.185-1.974-2.185-2.31-2.185-2.646-2.133-2.956-2.03-3.241-1.928-3.525-1.783-3.769-1.597-3.969-1.409-4.17-1.181-4.328-.91-4.445-.64-4.562-.336-4.62 0-4.62 .336-4.62 .639-4.562 .91-4.445 1.181-4.328 1.409-4.17 1.596-3.969 1.782-3.769 1.927-3.525 2.03-3.241 2.133-2.956 2.184-2.646 2.184-2.31 2.184-1.974 2.133-1.664 2.03-1.379 1.927-1.095 1.782-.852 1.596-.651 1.409-.45 1.181-.292 .91-.175 .639-.059 .336 0 0 0M3.443-8.82H2.184V-4.676H2.156C1.932-5.021 1.609-5.294 1.189-5.495 .77-5.695 .322-5.796-.154-5.796-.668-5.796-1.132-5.707-1.547-5.53-1.963-5.353-2.317-5.107-2.611-4.795-2.905-4.482-3.132-4.113-3.29-3.688-3.449-3.265-3.528-2.805-3.528-2.31-3.528-1.825-3.449-1.37-3.29-.945-3.132-.521-2.905-.149-2.611 .168-2.317 .485-1.963 .732-1.547 .91-1.132 1.087-.668 1.176-.154 1.176 .294 1.176 .73 1.078 1.155 .882 1.579 .687 1.913 .411 2.156 .056H2.184V1.008H3.443Z" fill="#1f190f"/>
<path transform="matrix(1,0,0,-1,164.9614,221.16373)" d="M0 0C0-.336 .052-.646 .154-.932 .257-1.216 .401-1.459 .588-1.659 .775-1.86 1.004-2.019 1.274-2.136 1.545-2.252 1.849-2.311 2.185-2.311 2.521-2.311 2.823-2.252 3.095-2.136 3.365-2.019 3.594-1.86 3.78-1.659 3.967-1.459 4.111-1.216 4.215-.932 4.317-.646 4.368-.336 4.368 0 4.368 .336 4.317 .646 4.215 .931 4.111 1.215 3.967 1.458 3.78 1.658 3.594 1.859 3.365 2.018 3.095 2.135 2.823 2.251 2.521 2.31 2.185 2.31 1.849 2.31 1.545 2.251 1.274 2.135 1.004 2.018 .775 1.859 .588 1.658 .401 1.458 .257 1.215 .154 .931 .052 .646 0 .336 0 0M-1.344 0C-1.344 .484-1.253 .937-1.07 1.357-.889 1.777-.639 2.146-.321 2.464-.005 2.781 .369 3.03 .799 3.213 1.228 3.395 1.689 3.485 2.185 3.485 2.679 3.485 3.141 3.395 3.57 3.213 4 3.03 4.373 2.781 4.69 2.464 5.008 2.146 5.258 1.777 5.439 1.357 5.621 .937 5.712 .484 5.712 0 5.712-.485 5.621-.94 5.439-1.365 5.258-1.79 5.008-2.159 4.69-2.472 4.373-2.784 4-3.031 3.57-3.213 3.141-3.396 2.679-3.486 2.185-3.486 1.689-3.486 1.228-3.396 .799-3.213 .369-3.031-.005-2.784-.321-2.472-.639-2.159-.889-1.79-1.07-1.365-1.253-.94-1.344-.485-1.344 0" fill="#1f190f"/>
<path transform="matrix(1,0,0,-1,177.39398,223.34824)" d="M0 0 3.766 4.41H.126V5.502H5.306V4.382L1.512-.042H5.502V-1.134H0Z" fill="#1f190f"/>
<path transform="matrix(1,0,0,-1,190.9321,224.56604)" d="M0 0C-.252 0-.47 .091-.651 .273-.833 .455-.924 .672-.924 .924-.924 1.176-.833 1.393-.651 1.575-.47 1.757-.252 1.848 0 1.848 .252 1.848 .469 1.757 .65 1.575 .833 1.393 .924 1.176 .924 .924 .924 .672 .833 .455 .65 .273 .469 .091 .252 0 0 0" fill="#1f190f"/>
<path transform="matrix(1,0,0,-1,204.17621,219.60993)" d="M0 0C-.233 .242-.479 .427-.735 .553-.992 .679-1.298 .742-1.652 .742-1.998 .742-2.299 .679-2.556 .553-2.813 .427-3.026 .254-3.199 .035-3.372-.185-3.503-.437-3.591-.721-3.68-1.006-3.725-1.302-3.725-1.61-3.725-1.918-3.673-2.21-3.57-2.485-3.468-2.761-3.323-3.001-3.137-3.206-2.949-3.411-2.726-3.572-2.464-3.689-2.203-3.806-1.909-3.864-1.582-3.864-1.228-3.864-.924-3.801-.672-3.675-.42-3.549-.187-3.365 .027-3.122L.924-4.019C.597-4.382 .217-4.644-.217-4.802-.651-4.961-1.111-5.04-1.597-5.04-2.109-5.04-2.579-4.956-3.003-4.788-3.428-4.62-3.794-4.385-4.103-4.081-4.41-3.778-4.648-3.414-4.816-2.989-4.984-2.564-5.068-2.096-5.068-1.582-5.068-1.069-4.984-.598-4.816-.168-4.648 .261-4.413 .63-4.109 .937-3.806 1.246-3.442 1.486-3.018 1.659-2.593 1.831-2.119 1.918-1.597 1.918-1.111 1.918-.646 1.831-.203 1.659 .24 1.486 .625 1.223 .952 .868Z" fill="#1f190f"/>
<path transform="matrix(1,0,0,-1,212.79929,221.16373)" d="M0 0C0-.336 .052-.646 .154-.932 .257-1.216 .401-1.459 .588-1.659 .775-1.86 1.004-2.019 1.274-2.136 1.545-2.252 1.849-2.311 2.185-2.311 2.521-2.311 2.823-2.252 3.095-2.136 3.365-2.019 3.594-1.86 3.78-1.659 3.967-1.459 4.111-1.216 4.215-.932 4.317-.646 4.368-.336 4.368 0 4.368 .336 4.317 .646 4.215 .931 4.111 1.215 3.967 1.458 3.78 1.658 3.594 1.859 3.365 2.018 3.095 2.135 2.823 2.251 2.521 2.31 2.185 2.31 1.849 2.31 1.545 2.251 1.274 2.135 1.004 2.018 .775 1.859 .588 1.658 .401 1.458 .257 1.215 .154 .931 .052 .646 0 .336 0 0M-1.344 0C-1.344 .484-1.253 .937-1.07 1.357-.889 1.777-.639 2.146-.321 2.464-.005 2.781 .369 3.03 .799 3.213 1.228 3.395 1.689 3.485 2.185 3.485 2.679 3.485 3.141 3.395 3.57 3.213 4 3.03 4.373 2.781 4.69 2.464 5.008 2.146 5.258 1.777 5.439 1.357 5.621 .937 5.712 .484 5.712 0 5.712-.485 5.621-.94 5.439-1.365 5.258-1.79 5.008-2.159 4.69-2.472 4.373-2.784 4-3.031 3.57-3.213 3.141-3.396 2.679-3.486 2.185-3.486 1.689-3.486 1.228-3.396 .799-3.213 .369-3.031-.005-2.784-.321-2.472-.639-2.159-.889-1.79-1.07-1.365-1.253-.94-1.344-.485-1.344 0" fill="#1f190f"/>
<path transform="matrix(1,0,0,-1,225.69379,217.84635)" d="M0 0H1.176V-1.036H1.204C1.231-.942 1.304-.826 1.421-.686 1.537-.546 1.687-.413 1.869-.287 2.051-.161 2.266-.054 2.513 .035 2.76 .124 3.033 .168 3.332 .168 3.826 .168 4.242 .065 4.578-.14 4.914-.345 5.189-.653 5.404-1.063 5.618-.653 5.922-.345 6.313-.14 6.706 .065 7.103 .168 7.504 .168 8.017 .168 8.438 .084 8.764-.084 9.091-.252 9.347-.474 9.534-.749 9.721-1.024 9.849-1.337 9.919-1.687 9.989-2.037 10.023-2.398 10.023-2.771V-6.636H8.764V-2.939C8.764-2.688 8.747-2.445 8.715-2.212 8.682-1.979 8.614-1.773 8.512-1.596 8.409-1.419 8.265-1.276 8.078-1.169 7.891-1.062 7.644-1.008 7.336-1.008 6.729-1.008 6.295-1.194 6.034-1.567 5.772-1.941 5.642-2.422 5.642-3.01V-6.636H4.382V-3.164C4.382-2.847 4.365-2.558 4.333-2.296 4.3-2.034 4.234-1.809 4.137-1.617 4.039-1.426 3.898-1.276 3.717-1.169 3.535-1.062 3.29-1.008 2.981-1.008 2.758-1.008 2.541-1.052 2.331-1.141 2.121-1.229 1.937-1.362 1.778-1.54 1.619-1.717 1.493-1.943 1.399-2.219 1.307-2.494 1.26-2.818 1.26-3.191V-6.636H0Z" fill="#1f190f"/>
<path transform="matrix(1,0,0,-1,142.4155,81.550937)" d="M0 0C-.422-1.361-.746-2.787-1.135-4.246H-13.256V-3.5C-11.441-1.718-9.625 .13-8.006 2.009-5.996 4.408-3.953 7.065-3.953 9.853-3.953 12.575-5.381 14.163-7.777 14.163-9.982 14.163-11.344 12.413-12.186 11.149L-12.898 11.797-11.051 14.422C-10.08 15.492-8.557 16.334-6.676 16.334-3.824 16.334-1.232 14.26-1.232 10.857-1.232 8.038-2.527 6.125-5.51 2.949L-10.111-1.88H-4.051C-2.301-1.88-1.879-1.75-.908 .292Z" fill="#1f190f"/>
<path transform="matrix(1,0,0,-1,147.72998,75.652469)" d="M0 0C0-4.537 .939-9.431 3.76-9.431 6.676-9.431 7.453-4.57 7.453-.032 7.453 4.57 6.645 9.367 3.727 9.367 .777 9.367 0 4.505 0 0M10.338-.032C10.338-4.764 8.621-10.533 3.76-10.533-1.135-10.533-2.885-5.186-2.885-.064-2.885 4.667-1.102 10.436 3.76 10.436 8.621 10.436 10.338 4.959 10.338-.032" fill="#1f190f"/>
<path transform="matrix(1,0,0,-1,162.8003,85.79654)" d="M0 0V.875C2.949 1.102 3.111 1.361 3.111 3.695V16.172C3.111 17.858 2.982 18.02 1.555 18.084L0 18.149V18.895C2.074 19.251 3.986 19.867 5.77 20.58V3.695C5.77 1.361 5.963 1.102 8.912 .875V0Z" fill="#1f190f"/>
<path transform="matrix(1,0,0,-1,179.52289,69.59143)" d="M0 0C0-2.398 1.912-3.468 4.213-4.603 5.314-3.728 6.189-2.528 6.189-.583 6.189 2.139 4.504 3.338 3.014 3.338 1.102 3.338 0 1.653 0 0M6.807-11.57C6.807-9.14 4.504-7.746 2.01-6.482 .453-7.52-.648-9.14-.648-10.922-.648-13.904 1.264-15.557 3.305-15.557 5.283-15.557 6.807-14.066 6.807-11.57M8.621-.421C8.621-1.361 8.297-2.301 7.682-3.014 7.453-3.306 6.578-4.084 5.121-5.088 7.357-6.353 9.398-7.908 9.398-10.728 9.398-14.52 5.736-16.594 2.98-16.594-.486-16.594-3.242-14.584-3.242-11.117-3.242-9.626-2.496-8.718-1.783-8.038-1.264-7.552-.033-6.677 1.068-5.964-1.037-4.765-2.432-3.209-2.432-.94-2.432 1.782-.131 4.375 3.338 4.375 6.416 4.375 8.621 2.204 8.621-.421" fill="#1f190f"/>
</g>
</g>
</g>
</g>
</svg>
